<mxfile host="app.diagrams.net" modified="2023-02-21T15:45:34.209Z" agent="5.0 (Windows NT 10.0; Win64; x64) AppleWebKit/537.36 (KHTML, like Gecko) Chrome/109.0.0.0 Safari/537.36" etag="aG0N21zlFGdDYG-W69k6" version="20.8.21" type="github">
  <diagram name="第 1 页" id="6njOARlxGQ-njRbcZbbK">
    <mxGraphModel dx="1434" dy="756" grid="1" gridSize="10" guides="1" tooltips="1" connect="1" arrows="1" fold="1" page="1" pageScale="1" pageWidth="827" pageHeight="1169" math="0" shadow="0">
      <root>
        <mxCell id="0" />
        <mxCell id="1" parent="0" />
        <mxCell id="JpbVMhpuoLtaMXXgkEkl-9" style="edgeStyle=orthogonalEdgeStyle;rounded=0;orthogonalLoop=1;jettySize=auto;html=1;exitX=1;exitY=0.25;exitDx=0;exitDy=0;entryX=0;entryY=0.5;entryDx=0;entryDy=0;fontSize=17;" edge="1" parent="1" source="JpbVMhpuoLtaMXXgkEkl-1" target="JpbVMhpuoLtaMXXgkEkl-5">
          <mxGeometry relative="1" as="geometry" />
        </mxCell>
        <mxCell id="JpbVMhpuoLtaMXXgkEkl-1" value="&lt;font style=&quot;font-size: 22px;&quot;&gt;End User&lt;/font&gt;" style="rounded=0;whiteSpace=wrap;html=1;" vertex="1" parent="1">
          <mxGeometry x="160" y="150" width="120" height="60" as="geometry" />
        </mxCell>
        <mxCell id="JpbVMhpuoLtaMXXgkEkl-3" value="" style="rounded=0;whiteSpace=wrap;html=1;dashed=1;fillColor=#fff2cc;strokeColor=#d6b656;" vertex="1" parent="1">
          <mxGeometry x="390" y="150" width="580" height="190" as="geometry" />
        </mxCell>
        <mxCell id="JpbVMhpuoLtaMXXgkEkl-10" style="edgeStyle=orthogonalEdgeStyle;rounded=0;orthogonalLoop=1;jettySize=auto;html=1;exitX=1;exitY=0.5;exitDx=0;exitDy=0;entryX=0.358;entryY=1.017;entryDx=0;entryDy=0;entryPerimeter=0;fontSize=17;dashed=1;" edge="1" parent="1" source="JpbVMhpuoLtaMXXgkEkl-4" target="JpbVMhpuoLtaMXXgkEkl-5">
          <mxGeometry relative="1" as="geometry" />
        </mxCell>
        <mxCell id="JpbVMhpuoLtaMXXgkEkl-4" value="&lt;font style=&quot;font-size: 22px;&quot;&gt;IDP&lt;/font&gt;" style="rounded=0;whiteSpace=wrap;html=1;" vertex="1" parent="1">
          <mxGeometry x="160" y="280" width="120" height="60" as="geometry" />
        </mxCell>
        <mxCell id="JpbVMhpuoLtaMXXgkEkl-11" style="edgeStyle=orthogonalEdgeStyle;rounded=0;orthogonalLoop=1;jettySize=auto;html=1;exitX=1;exitY=0.5;exitDx=0;exitDy=0;entryX=0;entryY=0.5;entryDx=0;entryDy=0;fontSize=17;" edge="1" parent="1" source="JpbVMhpuoLtaMXXgkEkl-5" target="JpbVMhpuoLtaMXXgkEkl-7">
          <mxGeometry relative="1" as="geometry" />
        </mxCell>
        <mxCell id="JpbVMhpuoLtaMXXgkEkl-13" style="edgeStyle=orthogonalEdgeStyle;rounded=0;orthogonalLoop=1;jettySize=auto;html=1;exitX=1;exitY=0.5;exitDx=0;exitDy=0;entryX=0;entryY=0.5;entryDx=0;entryDy=0;fontSize=17;" edge="1" parent="1" source="JpbVMhpuoLtaMXXgkEkl-5" target="JpbVMhpuoLtaMXXgkEkl-12">
          <mxGeometry relative="1" as="geometry" />
        </mxCell>
        <mxCell id="JpbVMhpuoLtaMXXgkEkl-5" value="user agent" style="rounded=1;whiteSpace=wrap;html=1;dashed=1;fontSize=22;" vertex="1" parent="1">
          <mxGeometry x="320" y="215" width="120" height="60" as="geometry" />
        </mxCell>
        <mxCell id="JpbVMhpuoLtaMXXgkEkl-6" value="&lt;font style=&quot;font-size: 17px;&quot;&gt;Internal Network&lt;/font&gt;" style="text;html=1;align=center;verticalAlign=middle;resizable=0;points=[];autosize=1;strokeColor=none;fillColor=none;fontSize=22;" vertex="1" parent="1">
          <mxGeometry x="590" y="160" width="150" height="40" as="geometry" />
        </mxCell>
        <mxCell id="JpbVMhpuoLtaMXXgkEkl-7" value="service" style="rounded=1;whiteSpace=wrap;html=1;dashed=1;fontSize=17;" vertex="1" parent="1">
          <mxGeometry x="790" y="180" width="120" height="60" as="geometry" />
        </mxCell>
        <mxCell id="JpbVMhpuoLtaMXXgkEkl-12" value="service" style="rounded=1;whiteSpace=wrap;html=1;dashed=1;fontSize=17;" vertex="1" parent="1">
          <mxGeometry x="790" y="260" width="120" height="60" as="geometry" />
        </mxCell>
        <mxCell id="JpbVMhpuoLtaMXXgkEkl-14" value="verify" style="text;html=1;align=center;verticalAlign=middle;resizable=0;points=[];autosize=1;strokeColor=none;fillColor=none;fontSize=17;" vertex="1" parent="1">
          <mxGeometry x="290" y="280" width="60" height="30" as="geometry" />
        </mxCell>
        <mxCell id="JpbVMhpuoLtaMXXgkEkl-15" value="access control" style="text;html=1;align=center;verticalAlign=middle;resizable=0;points=[];autosize=1;strokeColor=none;fillColor=none;fontSize=17;" vertex="1" parent="1">
          <mxGeometry x="460" y="215" width="130" height="30" as="geometry" />
        </mxCell>
        <mxCell id="JpbVMhpuoLtaMXXgkEkl-19" style="edgeStyle=orthogonalEdgeStyle;rounded=0;orthogonalLoop=1;jettySize=auto;html=1;exitX=0.75;exitY=0;exitDx=0;exitDy=0;entryX=0.814;entryY=1.021;entryDx=0;entryDy=0;entryPerimeter=0;fontSize=17;" edge="1" parent="1" source="JpbVMhpuoLtaMXXgkEkl-16" target="JpbVMhpuoLtaMXXgkEkl-3">
          <mxGeometry relative="1" as="geometry" />
        </mxCell>
        <mxCell id="JpbVMhpuoLtaMXXgkEkl-16" value="Hacker" style="shape=parallelogram;perimeter=parallelogramPerimeter;whiteSpace=wrap;html=1;fixedSize=1;dashed=1;fontSize=17;" vertex="1" parent="1">
          <mxGeometry x="414" y="400" width="120" height="60" as="geometry" />
        </mxCell>
        <mxCell id="JpbVMhpuoLtaMXXgkEkl-20" value="&lt;font style=&quot;font-size: 25px;&quot;&gt;&lt;b&gt;×&lt;/b&gt;&lt;/font&gt;" style="text;html=1;align=center;verticalAlign=middle;resizable=0;points=[];autosize=1;strokeColor=none;fillColor=none;fontSize=17;" vertex="1" parent="1">
          <mxGeometry x="840" y="310" width="40" height="40" as="geometry" />
        </mxCell>
        <mxCell id="JpbVMhpuoLtaMXXgkEkl-21" value="" style="shape=tapeData;whiteSpace=wrap;html=1;perimeter=ellipsePerimeter;dashed=1;fontSize=25;" vertex="1" parent="1">
          <mxGeometry x="30" y="40" width="80" height="80" as="geometry" />
        </mxCell>
        <mxCell id="JpbVMhpuoLtaMXXgkEkl-22" value="" style="shape=tapeData;whiteSpace=wrap;html=1;perimeter=ellipsePerimeter;dashed=1;fontSize=25;" vertex="1" parent="1">
          <mxGeometry x="1090" y="480" width="80" height="80" as="geometry" />
        </mxCell>
        <mxCell id="JpbVMhpuoLtaMXXgkEkl-23" value="" style="shape=tapeData;whiteSpace=wrap;html=1;perimeter=ellipsePerimeter;dashed=1;fontSize=25;" vertex="1" parent="1">
          <mxGeometry x="30" y="520" width="80" height="80" as="geometry" />
        </mxCell>
        <mxCell id="JpbVMhpuoLtaMXXgkEkl-24" value="" style="shape=tapeData;whiteSpace=wrap;html=1;perimeter=ellipsePerimeter;dashed=1;fontSize=25;" vertex="1" parent="1">
          <mxGeometry x="1080" y="40" width="80" height="80" as="geometry" />
        </mxCell>
      </root>
    </mxGraphModel>
  </diagram>
</mxfile>
